<svg xmlns="http://www.w3.org/2000/svg" viewBox="0 0 640 640"><!--!Font Awesome Pro 7.1.0 by @fontawesome - https://fontawesome.com License - https://fontawesome.com/license (Commercial License) Copyright 2026 Fonticons, Inc.--><path fill="#ffffff" d="M160 96C124.7 96 96 124.7 96 160L96 480C96 515.3 124.7 544 160 544L160 544L160 544L310.1 544C306.1 528.7 304 512.6 304 496C304 390 390 304 496 304C512.6 304 528.7 306.1 544 310.1L544 160C544 124.7 515.3 96 480 96L160 96zM164 192C164 176.5 176.5 164 192 164C207.5 164 220 176.5 220 192C220 207.5 207.5 220 192 220C176.5 220 164 207.5 164 192zM164 320C164 304.5 176.5 292 192 292C207.5 292 220 304.5 220 320C220 335.5 207.5 348 192 348C176.5 348 164 335.5 164 320zM496 352Q496 352 496 352Q496 352 496 352zM496 352C416.5 352 352 416.5 352 496C352 575.5 416.5 640 496 640C575.5 640 640 575.5 640 496C640 416.5 575.5 352 496 352zM480.3 428.8C481.8 421.5 488.3 416 496 416C503.7 416 510.2 421.5 511.7 428.8L512 432L512 480L560 480L563.2 480.3C570.5 481.8 576 488.3 576 496C576 503.7 570.5 510.2 563.2 511.7L560 512L512 512L512 560L511.7 563.3C510.2 570.5 503.8 576 496 576C488.2 576 481.8 570.6 480.3 563.3L480 560L480 512L432 512L428.7 511.7C421.5 510.2 416 503.8 416 496C416 488.2 421.4 481.8 428.7 480.3L432 480L480 480L480 432L480.3 428.8zM164 448C164 432.5 176.5 420 192 420C207.5 420 220 432.5 220 448C220 463.5 207.5 476 192 476C176.5 476 164 463.5 164 448zM496 640Q496 640 496 640Q496 640 496 640z"/></svg>